<svg xmlns="http://www.w3.org/2000/svg" width="24" height="28" viewBox="0 0 24 28"><defs><style>.a{fill:#0bdcf3;}</style></defs><path class="a" d="M23.5,21.821a15.15,15.15,0,0,1-1.532,2.707,13.812,13.812,0,0,1-1.973,2.344,3.861,3.861,0,0,1-2.536,1.1,6.45,6.45,0,0,1-2.343-.55,6.822,6.822,0,0,0-2.522-.548A7.055,7.055,0,0,0,10,27.419,7.077,7.077,0,0,1,7.756,28a3.635,3.635,0,0,1-2.593-1.127A14.507,14.507,0,0,1,3.1,24.445a16.673,16.673,0,0,1-2.183-4.26A15.358,15.358,0,0,1,0,15.107a9.147,9.147,0,0,1,1.239-4.851,7.205,7.205,0,0,1,2.6-2.58A7.073,7.073,0,0,1,7.342,6.7a8.384,8.384,0,0,1,2.714.621,8.843,8.843,0,0,0,2.152.622A13.05,13.05,0,0,0,14.6,7.213a8.013,8.013,0,0,1,3.244-.566,6.922,6.922,0,0,1,5.4,2.792A5.881,5.881,0,0,0,20.052,14.8a5.865,5.865,0,0,0,1.975,4.454A6.5,6.5,0,0,0,24,20.523q-.237.677-.5,1.3ZM18,.561a5.915,5.915,0,0,1-1.558,3.918,5.343,5.343,0,0,1-4.409,2.139A4.285,4.285,0,0,1,12,6.087a6.081,6.081,0,0,1,1.653-3.959A6.356,6.356,0,0,1,15.665.642,6.085,6.085,0,0,1,17.969,0a5,5,0,0,1,.03.56Z" transform="translate(0 0)"/></svg>