<svg xmlns="http://www.w3.org/2000/svg" width="26" height="28" viewBox="0 0 26 28"><defs><style>.a{fill:#0bdcf3;}</style></defs><g transform="translate(-21.991 0)"><g transform="translate(24.147 0)"><g transform="translate(0 0)"><path class="a" d="M62.958.44A2.825,2.825,0,0,0,60.8.073L73.631,12.7l4.158-4.093Z" transform="translate(-60.802 0)"/></g></g><g transform="translate(21.991 1.1)"><g transform="translate(0)"><path class="a" d="M22.555,20.116a2.716,2.716,0,0,0-.564,1.652v22.5a2.717,2.717,0,0,0,.564,1.652l13.1-12.9Z" transform="translate(-21.991 -20.116)"/></g></g><g transform="translate(38.294 9.54)"><g transform="translate(0)"><path class="a" d="M323.718,176.508l-3.737-2.058-4.53,4.459,4.53,4.46,3.737-2.058a2.731,2.731,0,0,0,0-4.8Z" transform="translate(-315.451 -174.45)"/></g></g><g transform="translate(24.148 15.296)"><g transform="translate(0)"><path class="a" d="M73.643,279.711,60.815,292.339a2.807,2.807,0,0,0,2.156-.366L77.8,283.8Z" transform="translate(-60.815 -279.711)"/></g></g></g></svg>