<svg xmlns="http://www.w3.org/2000/svg" width="162.001" height="162" viewBox="0 0 162.001 162"><defs><style>.a{fill:#f7f7f7;}.b,.h,.i{fill:none;}.b{stroke:#00def0;stroke-linecap:round;stroke-width:1.5px;stroke-dasharray:4.084 4.084;}.b,.e{stroke-miterlimit:10;}.c{fill:#0b6af7;}.d,.e{fill:#00def0;}.e,.i{stroke:#fff;}.e{stroke-width:1.111px;}.f{fill:#fff;}.g{fill:#3a3a3a;}.i{stroke-width:0.7px;stroke-dasharray:1.167 0.583;}</style></defs><g transform="translate(-190 -1266.855)"><path class="a" d="M74-3c43.481-2.976,84.76,40.356,85,82.926s-39.922,78.929-83,78.929S-3,117.97-3,74.93,30.519-.024,74-3Z" transform="translate(193 1270)"/><g transform="translate(21.544 732)"><circle class="b" cx="59.722" cy="59.722" r="59.722" transform="translate(190.317 555.929)"/><path class="c" d="M238.486,652.645c1.488,1.488,2.968,2.969,4.459,4.457h10.083q2.232-2.232,4.457-4.457h-19Z"/><path class="d" d="M240.768,606.042a1.644,1.644,0,0,0,2.592.578,3.685,3.685,0,0,0,.946-2.744,3.518,3.518,0,0,0-.386-1.488,3.146,3.146,0,0,0-.849-.995c-.046.028-.08.064-.126.09a6.087,6.087,0,0,0-2,2.456A3,3,0,0,0,240.768,606.042Z"/><path class="d" d="M255.752,600.807a4.206,4.206,0,0,0-1.695.335c.018.027.034.044.052.07a5.933,5.933,0,0,1,1.194,3.278,3.855,3.855,0,0,1-.841,2.527,2.149,2.149,0,0,1-1.949.9,1.361,1.361,0,0,1-.245-.072,2.661,2.661,0,0,1-1.427-1.9,4.813,4.813,0,0,1,.1-2.852,4.656,4.656,0,0,1,1.689-2.184,5.117,5.117,0,0,0-1.97-1.13,9.524,9.524,0,0,0-6.788,1.11,3.89,3.89,0,0,1,.841,1.075,4.756,4.756,0,0,1-.758,5.343,2.546,2.546,0,0,1-4.026-.939,3.814,3.814,0,0,1,.18-2.769,7.017,7.017,0,0,1,2.131-2.71,4.533,4.533,0,0,0-2.654-.334c-1.625.3-3.186,1.669-4.451,2.845l9.253,34.514h7l9.367-34.947C259.264,601.981,257.4,600.843,255.752,600.807Z"/><path class="d" d="M251.708,605.708c.118.435.415,1.129.867,1.291a.315.315,0,0,0,.09.026,1.323,1.323,0,0,0,1.1-.576,2.974,2.974,0,0,0,.632-1.941,5.1,5.1,0,0,0-1.011-2.762c-.044-.054-.09-.116-.135-.173a3.868,3.868,0,0,0-1.462,1.826A3.938,3.938,0,0,0,251.708,605.708Z"/><path class="e" d="M229.117,622.235h.008a21.574,21.574,0,0,1,3.8,5.849,56.043,56.043,0,0,1,1.661,6.832c.451,1.725.407,3,2.679,3h5.362c-3.139-11.716-5.992-22.367-9.135-34.073,1.563-1.687,3.621-3.745,5.931-4.18a5.471,5.471,0,0,1,3.655.642,10.514,10.514,0,0,1,7.845-1.39,6.074,6.074,0,0,1,2.509,1.516,5.118,5.118,0,0,1,2.337-.523c2.212.044,4.884,1.833,6.716,3.141-3.142,11.715-6.211,23.151-9.342,34.867H258.7v.027c2.256-.316,2.228-1.3,2.679-3.024a56.04,56.04,0,0,1,1.661-6.832,21.526,21.526,0,0,1,3.8-5.849h.008a25.151,25.151,0,1,0-37.737,0Z"/><rect class="d" width="21.438" height="1.877" transform="translate(237.266 639.782)"/><rect class="d" width="21.438" height="1.87" transform="translate(237.266 643.527)"/><path class="d" d="M237.266,651.426a1.227,1.227,0,0,0,1.22,1.219h19a1.226,1.226,0,0,0,1.219-1.219v-.416H237.266Z"/><rect class="d" width="21.438" height="1.879" transform="translate(237.266 647.264)"/><path class="c" d="M258.676,637.913H237.266v1.869H258.7v-1.869Z"/><path class="c" d="M237.266,643.527H258.7v-1.867H237.266Z"/><path class="c" d="M237.266,647.264H258.7V645.4H237.266Z"/><path class="c" d="M237.266,651.01H258.7v-1.868H237.266Z"/><path class="f" d="M235.136,603.4c1.265-1.176,2.826-2.546,4.451-2.845a4.533,4.533,0,0,1,2.654.334,7.017,7.017,0,0,0-2.131,2.71,3.814,3.814,0,0,0-.18,2.769,2.546,2.546,0,0,0,4.026.939,4.756,4.756,0,0,0,.758-5.343,3.89,3.89,0,0,0-.841-1.075,9.524,9.524,0,0,1,6.788-1.11,5.117,5.117,0,0,1,1.97,1.13,4.656,4.656,0,0,0-1.689,2.184,4.813,4.813,0,0,0-.1,2.852,2.661,2.661,0,0,0,1.427,1.9,1.361,1.361,0,0,0,.245.072,2.149,2.149,0,0,0,1.949-.9,3.855,3.855,0,0,0,.841-2.527,5.933,5.933,0,0,0-1.194-3.278c-.018-.026-.034-.043-.052-.07a4.206,4.206,0,0,1,1.695-.335c1.653.036,3.512,1.174,5,2.159l-9.367,34.947h1.759c3.131-11.716,6.2-23.152,9.342-34.867-1.832-1.308-4.5-3.1-6.716-3.141a5.118,5.118,0,0,0-2.337.523,6.074,6.074,0,0,0-2.509-1.516,10.514,10.514,0,0,0-7.845,1.39,5.471,5.471,0,0,0-3.655-.642c-2.31.435-4.368,2.493-5.931,4.18,3.143,11.706,6,22.357,9.135,34.073h1.761Zm18.116-1.826c.045.057.091.119.135.173a5.1,5.1,0,0,1,1.011,2.762,2.974,2.974,0,0,1-.632,1.941,1.323,1.323,0,0,1-1.1.576.315.315,0,0,1-.09-.026c-.452-.162-.749-.856-.867-1.291a3.938,3.938,0,0,1,.082-2.309A3.868,3.868,0,0,1,253.252,601.573Zm-10.307-.09c.046-.026.08-.062.126-.09a3.146,3.146,0,0,1,.849.995,3.518,3.518,0,0,1,.386,1.488,3.685,3.685,0,0,1-.946,2.744,1.644,1.644,0,0,1-2.592-.578,3,3,0,0,1,.181-2.1A6.087,6.087,0,0,1,242.945,601.483Z"/><circle class="c" cx="11.111" cy="11.111" r="11.111" transform="translate(238.928 546)"/><circle class="c" cx="11.111" cy="11.111" r="11.111" transform="translate(292.122 633.778)"/><circle class="g" cx="11.111" cy="11.111" r="11.111" transform="translate(285.456 572.667)"/><circle class="c" cx="11.111" cy="11.111" r="11.111" transform="translate(238.928 663.778)"/><circle class="g" cx="11.111" cy="11.111" r="11.111" transform="translate(185.456 633.778)"/><circle class="c" cx="11.111" cy="11.111" r="11.111" transform="translate(185.456 572.667)"/><path class="f" d="M244.081,550.175a.416.416,0,0,1,.429-.008l11.472,6.643a.351.351,0,0,1,.141.475l-.016.027a.392.392,0,0,1-.224.158l-3.611.957L255.1,562.2a.35.35,0,0,1-.07.49L255,562.7l-2.054,1.341a.409.409,0,0,1-.544-.09l-2.824-3.768-2.2,2.84a.409.409,0,0,1-.545.082.364.364,0,0,1-.153-.22l-2.759-12.342A.351.351,0,0,1,244.081,550.175Z"/><path class="f" d="M304.255,582.437l.006-.012.006-.015a.345.345,0,0,0,.012-.233v-.006l0-.011a.382.382,0,0,0-.09-.143l-5.263-5.158a.378.378,0,0,0-.2-.1h0l-.03,0h-.042a.379.379,0,0,0-.252.107l-8.712,8.538a1.816,1.816,0,0,0-.036,2.568l.036.037,2.256,2.21a1.889,1.889,0,0,0,1.33.54h1.762a1.883,1.883,0,0,0,1.328-.54l1.809-1.77.009-.008.008-.008,6.008-5.888A.361.361,0,0,0,304.255,582.437Zm-8.432,7.253a1.148,1.148,0,0,1-.8.323h-1.762a1.148,1.148,0,0,1-.8-.323l-2.256-2.213a1.091,1.091,0,0,1-.022-1.541l.022-.022,2.43-2.381,4.732,4.638Z"/><path class="f" d="M203.26,577.778H189.874a.976.976,0,0,0-.974.98h0V588.8a.978.978,0,0,0,.974.979H203.26a.978.978,0,0,0,.974-.979V578.758a.977.977,0,0,0-.974-.98Zm0,.979v7.125l-1.918-1.755a.728.728,0,0,0-1.008.024l-1.942,1.953-3.825-4.6a.727.727,0,0,0-1.024-.095.674.674,0,0,0-.089.088l-3.58,4.182v-6.92Zm-4.137,2.571a1.339,1.339,0,1,1,1.339,1.347,1.338,1.338,0,0,1-1.339-1.347Z"/><rect class="h" width="10.705" height="10.499" transform="translate(296.652 638.889)"/><rect class="i" width="10.005" height="9.799" transform="translate(297.002 639.239)"/><path class="f" d="M311.547,646.845l-9.35-3.966a.454.454,0,0,0-.491.093.431.431,0,0,0-.1.482l4.045,9.169a.447.447,0,0,0,.409.266h.04a.444.444,0,0,0,.395-.34l.938-3.951,4.029-.921a.435.435,0,0,0,.077-.829Z"/><rect class="f" width="2.625" height="14" rx="0.583" transform="translate(248.581 667.889)"/><rect class="f" width="15.167" height="2.925" rx="0.583" transform="translate(242.456 673.722)"/><path class="f" d="M189.888,650.723h11.1a.263.263,0,0,1,.263.262h0a.263.263,0,0,1-.263.263h-11.1a.263.263,0,0,1-.262-.263h0A.263.263,0,0,1,189.888,650.723Z"/><path class="f" d="M190.336,650.439h-.116a.689.689,0,0,1-.467-.2c0-.027-.025-.053-.052-.08l-.005-.006a.667.667,0,0,1-.058-.428.028.028,0,0,0,.029-.028h0l.117-.342.117-.313,1.017-3.078c.029-.028.029-.028.029-.058v-.027a.093.093,0,0,1,.059-.028l5.786-5.7,1.338-1.4,1.193-1.166a1.113,1.113,0,0,1,.812-.344,1.1,1.1,0,0,1,.784.342l1.774,1.738a1.054,1.054,0,0,1,.078,1.488c-.025.027-.051.054-.078.078l-1.222,1.167-1.365,1.37-5.813,5.7a.433.433,0,0,1-.117.086l-3.317,1.054-.467.141C190.394,650.439,190.366,650.439,190.336,650.439Zm8.342-8.376h0l-5.522,5.414.934.94,5.523-5.442-.932-.912Zm-1.422-1.395h0l-5.525,5.413.934.94,5.524-5.413Z"/></g></g></svg>