<svg xmlns="http://www.w3.org/2000/svg" width="161.795" height="92.139" viewBox="0 0 161.795 92.139"><defs><style>.a{fill:none;}.a,.e{stroke:#0d0d0d;}.b,.d{fill:#0d0d0d;}.c{fill:#ffdf78;}.d{font-size:15px;font-family:Poppins-SemiBold, Poppins;font-weight:600;}.e{fill:#f2f2f2;}</style></defs><g transform="translate(-140.085 -365.642)"><path class="a" d="M-2703.544-3747.6s-10.218-25.211-19.6-21.518c-1.8.7-3.662,3.121-5.281,7.053-5.036,13.8,31.484-1.6,13.977-27.024" transform="translate(2933 4199.266)"/><path class="b" d="M4.079.654a.5.5,0,0,1,.841,0L8.5,6.23A.5.5,0,0,1,8.084,7H.916A.5.5,0,0,1,.5,6.23Z" transform="translate(236.147 453.281) rotate(150)"/><g transform="matrix(0.966, -0.259, 0.259, 0.966, -40.647, 45.511)"><g transform="translate(-743 105)"><rect class="c" width="160" height="28" rx="2" transform="translate(824 291)"/><text class="d" transform="translate(895 310)"><tspan x="-66.525" y="0">This is interactive</tspan></text></g><path class="e" d="M86.053,83.733l-3.184-3.184,2.272-1.312a.535.535,0,0,0-.069-.96l-10.13-4.041a.535.535,0,0,0-.7.7l4.04,10.131a.535.535,0,0,0,.96.069l1.312-2.272,3.184,3.184a.535.535,0,0,0,.757,0l1.554-1.554A.535.535,0,0,0,86.053,83.733Z" transform="translate(273.501 306.139) rotate(68)"/></g></g></svg>