<svg xmlns="http://www.w3.org/2000/svg" width="162.001" height="162" viewBox="0 0 162.001 162"><defs><style>.a{fill:#f7f7f7;}.b{fill:#0b6af7;}.c{fill:#00def0;}.d,.e{fill:#fff;stroke-width:1.5px;stroke-dasharray:4 4;}.d{stroke:#3a3a3a;}.e{stroke:#0b6af7;stroke-linecap:round;stroke-miterlimit:10;}</style></defs><g transform="translate(-589 -1308.855)"><path class="a" d="M74-3c43.481-2.976,84.76,40.356,85,82.926s-39.922,78.929-83,78.929S-3,117.97-3,74.93,30.519-.024,74-3Z" transform="translate(592 1312)"/><g transform="translate(276.494 780)"><path class="b" d="M445.447,662.559V650.525c-.023-.054-.048-.107-.067-.163v-15.73H429.461a2.508,2.508,0,0,1-1.1-3.613c2.162-3.468,2.656-7.756-1.352-10.115a7,7,0,0,0-9.513,2.632c-1.482,2.726-.268,5.128,1.124,7.567a2.508,2.508,0,0,1-1.152,3.531H401.749v6.344l0,9.221a2.5,2.5,0,0,0,3.749,1.512c3.469-2.161,7.757-2.653,10.114,1.357a6.978,6.978,0,0,1-2.82,9.437c-2.726,1.48-4.914.288-7.382-1.052a2.348,2.348,0,0,0-3.661,1.521v15.289h11.032v.036h23.708v-.038h8.889V662.715C445.4,662.661,445.424,662.611,445.447,662.559Z" transform="translate(-15.602 -15.3)"/><path class="c" d="M401.608,657.745c-2.358-4.008-6.646-3.515-10.115-1.352a2.5,2.5,0,0,1-3.828-2.125V639.761H372.188a2.505,2.505,0,0,0-1.319,3.595c1.393,2.438,2.608,4.839,1.128,7.566a7,7,0,0,1-9.512,2.636c-4.01-2.356-3.518-6.645-1.358-10.114a2.5,2.5,0,0,0-1.293-3.683H344.321l0-.12H344.1v-.264h-.065v43.629h43.629v-14.7a2.5,2.5,0,0,1,3.746-2.174c2.439,1.392,4.84,2.605,7.567,1.124A7,7,0,0,0,401.608,657.745Z" transform="translate(-1.586 -20.006)"/><path class="d" d="M450.483,611.7l14.043-40.362-.2-.07L423.32,557l-4.893,14.065a2.5,2.5,0,0,1-4.314.749c-2.564-3.182-6.452-5.058-10-2.047a7,7,0,0,0-.641,9.85c2.087,2.3,4.755,1.938,7.515,1.425a2.5,2.5,0,0,1,2.823,3.284l-4.829,13.881,14.44,5.024a2.506,2.506,0,0,0,2.639-2.958c-.515-2.76-.873-5.427,1.421-7.516a7,7,0,0,1,9.85.635c3.012,3.543,1.139,7.432-2.042,10a2.5,2.5,0,0,0,.2,4.038l8.709,3.03,5.788,2.014.2.07.293-.843Z" transform="translate(-15.602 0)"/><path class="e" d="M384.217,602.21a2.348,2.348,0,0,0-3.817-1.07c-2.29,1.626-4.318,3.072-7.2,1.93a6.978,6.978,0,0,1-3.931-9.031c1.859-4.263,6.174-4.289,9.878-2.56a2.5,2.5,0,0,0,3.541-1.952l-1.1-9.153-.735-6.085-.026-.213-4.928.6-36.52,4.413v0l-1.866.226.026.213.678,5.619,1.182,9.784c-.013.057-.031.113-.048.17l1.444,11.948c.029.049.059.1.084.147l1.864,15.433.214-.026.018.118,5.619-.679,9.784-1.182a2.5,2.5,0,0,1,1.725,3.5c-1.728,3.7-1.7,8.02,2.561,9.878a7,7,0,0,0,9.127-3.759c1.143-2.885-.352-5.123-2.028-7.376a2.5,2.5,0,0,1,.878-3.727l15.434-1.866-.766-6.343h0Z" transform="translate(0 -4.147)"/></g></g></svg>