<svg xmlns="http://www.w3.org/2000/svg" width="20" height="20" viewBox="0 0 20 20"><defs><style>.a,.d{fill:none;}.a,.b{stroke:#0bdcf3;}.b{fill:#0bdcf3;}.c{stroke:none;}</style></defs><g transform="translate(-154 -420)"><g transform="translate(154 420)"><g class="a"><circle class="c" cx="10" cy="10" r="10"/><circle class="d" cx="10" cy="10" r="9.5"/></g><path class="b" d="M4.246,10.339a.552.552,0,0,1-.421-.206l-3.65-4.3a.791.791,0,0,1,0-.992.534.534,0,0,1,.843,0l3.229,3.8,6.879-8.1a.534.534,0,0,1,.843,0,.792.792,0,0,1,0,.992l-7.3,8.6a.553.553,0,0,1-.421.206Zm0,0" transform="translate(3.75 4.661)"/></g></g></svg>